<svg xmlns="http://www.w3.org/2000/svg" viewBox="0 0 522.7 113"><path fill="#FABB27" d="M511.4 57.6c0 27.9-22.6 50.5-50.5 50.5H61.8c-27.9 0-50.5-22.6-50.5-50.5v-2.2c0-27.9 22.6-50.5 50.5-50.5h399.1c27.9 0 50.5 22.6 50.5 50.5v2.2z"/><path d="M59 78.4l-11-36h13.8l5.8 25.5h.1L74 42.4h15.1l6.2 25.4h.1l6.3-25.4h12l-11.3 36H87.5L81 53.3h-.1l-7 25.1H59zm71.1-15.3c-.1 4.7 1.1 8.7 6.2 8.7 3.8 0 6.2-1.8 6.7-5.2h12.6c-.4 4.7-3.4 8-6.8 10-3.2 2-7.2 2.8-11.4 2.8-14.4 0-20.1-6.2-20.1-20.3 0-11.4 8.5-17.9 19.4-17.9 14.6 0 19.3 8.4 19.3 21.8h-25.9zm12.9-7.3c0-1.9-.6-3.9-1.6-5.4-1.1-1.5-2.7-2.4-4.7-2.3-4.7.2-5.9 3.6-6.2 7.7H143zm23.6-13.4V37l13.6-5.2v10.6h7.9V51h-7.9v14.3c0 .9-.6 5.6 2.6 5.6 1.8 0 3.7 0 5.2-.2v8.1c-3.1.6-5.3.7-7.3.7-9.2 0-14.8-1.3-14.1-12.3V51h-7v-8.6h7zm31.5 0V37l13.6-5.2v10.6h7.9V51h-7.9v14.3c0 .9-.6 5.6 2.6 5.6 1.8 0 3.7 0 5.2-.2v8.1c-3.1.6-5.3.7-7.3.7-9.2 0-14.8-1.3-14.1-12.3V51h-7v-8.6h7zM237 63.1c-.1 4.7 1.1 8.7 6.2 8.7 3.8 0 6.2-1.8 6.7-5.2h12.6c-.4 4.7-3.4 8-6.8 10-3.2 2-7.2 2.8-11.4 2.8-14.4 0-20.1-6.2-20.1-20.3 0-11.4 8.5-17.9 19.4-17.9 14.6 0 19.3 8.4 19.3 21.8H237zm12.9-7.3c0-1.9-.6-3.9-1.6-5.4-1.1-1.5-2.7-2.4-4.7-2.3-4.7.2-5.9 3.6-6.2 7.7h12.5zm34-6.7h.1c1.6-6 6-8 12-7.8v11.5c-1-.1-1.9-.1-2.9-.1-7.1.1-9.5 4.3-9.3 11.2v14.4h-13.6V51.7c0-3.2-.1-5.4-.4-9.2h13.8l.3 6.6zm13.7 29.3V67.6h12.9v10.8h-12.9zM343.4 55c0-1.8-.3-3.2-1.1-4.2s-2.2-1.6-4.2-1.6c-4.9 0-5.2 7.5-5.2 11.2 0 3.7.3 11.2 5.2 11.2 4.7-.4 5.3-4 5.3-7.2H357c0 5.1-2.2 8.8-5.6 11.3-3.4 2.4-8 3.7-12.8 3.8-13.6 0-19.8-6.6-19.8-19.1 0-13.1 9-19.1 19.8-19.1 9.1-.1 17.7 3.4 18.4 13.7h-13.6zm61.1 5.4c0 13.3-9.7 19.1-20.9 19.1s-20.9-5.8-20.9-19.1 9.7-19.1 20.9-19.1 20.9 5.8 20.9 19.1zm-21 11.2c5.7 0 7-6.1 7-11.2s-1.2-11.2-7-11.2c-5.7 0-7 6.1-7 11.2.1 5.1 1.3 11.2 7 11.2zm41.4-23.2h.1c2.5-4.9 7.2-6.8 12.6-6.8 4.4 0 9.3 2.3 10.8 6.7 2.4-4.3 7.4-6.7 12.8-6.9 7.7 0 13.5 5 13.5 13v24.1h-13.6V57.2c-.1-3.5-1-7.3-5.2-7.3-6.7 0-5.9 7.4-5.9 7.8v20.6h-13.6V57.2c-.1-3.5-1-7.3-5.2-7.3-6.7 0-5.9 7.4-5.9 7.8v20.6h-13.6V51.7c0-3.2-.1-5.4-.4-9.2h13.5l.1 5.9z" fill="#004A99"/></svg>